<svg width="226" height="104" viewBox="0 0 226 104" fill="none" xmlns="http://www.w3.org/2000/svg">
<path d="M5 0C5.44433 0 5.88867 2.98023e-08 6.29909 0.301455C7.02186 1.1275 7.71234 1.93231 8.54642 2.1294C12.7177 3.11502 16.9245 3.95136 21.1228 4.82134C27.9955 6.24553 34.9134 7.48025 41.7318 9.12788C46.9133 10.38 51.9646 12.1673 57.0842 13.6815C59.9135 14.5183 62.7672 15.2721 65.6044 16.0824C74.9169 18.7419 84.2306 21.3974 93.5364 24.0805C98.0709 25.3878 102.526 27.0464 107.126 28.036C120.304 30.8708 133.58 33.2588 146.728 36.2231C151.277 37.2488 155.597 39.5791 159.838 41.3518C167.952 44.7436 177.575 44.3532 186.437 46.1832C193.74 47.6914 200.844 50.1564 208.047 52.1587C209.81 52.6489 211.616 52.9878 213.782 53.483C214.344 55.9053 215.371 58.8869 215.677 61.9407C216.288 68.045 217.604 74.3794 216.585 80.2648C215.482 86.6355 219.507 94.6626 211.64 99.3008C211.813 99.5853 211.987 99.8697 211.953 100.157C211.336 100.125 210.924 100.09 210.897 99.7047C210.723 98.6359 210.309 97.5295 209.584 97.2621C203.606 95.0549 197.679 92.577 191.528 90.994C179.091 87.7936 166.529 85.0763 154.006 82.2184C149.022 81.081 144.002 80.0989 138.69 78.8139C134.587 77.7554 130.794 76.9291 126.719 75.802C118.292 74.1254 110.147 72.7493 101.575 71.2401C96.7636 70.4859 92.3798 69.8649 87.8147 68.88C81.7554 67.3884 75.8773 66.261 69.6059 65.0153C62.0764 63.1676 54.9444 61.4204 47.8026 59.7139C41.332 58.1677 34.6916 57.1368 28.418 55.0152C21.8527 52.7948 15.6252 49.5683 9.26941 46.7381C4.42714 44.5819 0.296155 42.0095 3.04766 35.5569C3.34246 34.8656 3.03358 33.9267 3.04566 33.1032C3.10946 28.7531 5.84843 26.9089 10.0351 28.0968C12.9065 28.9115 15.8936 29.3187 18.829 29.9081C19.2968 29.1831 19.7645 28.4581 20.2322 27.7331C17.7167 24.2992 15.2013 20.8652 12.6858 17.4312C12.1787 17.5647 11.6716 17.6981 11.1645 17.8316C10.5503 20.4089 9.93607 22.9862 9.28526 25.7171C6.19418 25.5607 4.84465 24.3719 5.15235 20.7374C5.45086 17.2117 4.63762 13.5919 4.44732 9.68655C4.72135 6.23982 4.86067 3.11991 5 0ZM45.083 51.7613C45.7703 51.3162 46.9212 50.9922 47.074 50.4073C48.7692 43.9215 50.3989 37.4145 51.8022 30.8609C52.0301 29.7969 51.2401 28.3829 50.6293 27.294C47.7799 22.2143 43.5332 19.3703 37.5785 18.983C34.0378 18.7527 30.3118 15.0557 28.2088 18.2994C27.7357 24.0366 27.5121 28.1945 27.0216 32.3207C26.4428 37.1896 25.3787 42.0143 25.0556 46.8933C24.9358 48.7037 25.8025 51.2005 27.1204 52.3603C30.2105 55.0796 40.8405 54.5339 45.083 51.7613ZM125.268 55.2635C125.309 53.631 125.312 51.9965 125.397 50.3663C125.617 46.1722 124.623 42.145 120.895 40.1142C117.4 38.2104 113.13 37.7847 109.466 36.1227C105.523 34.3335 103.392 35.8629 102.28 39.3079C100.367 45.2374 98.6479 51.2389 97.1085 57.2768C95.6409 63.0333 96.8195 64.7099 102.578 66.0903C103.21 66.2417 103.809 66.5342 104.417 66.7798C112.594 70.0858 118.689 68.2599 123.116 60.9987C124.019 59.5179 124.399 57.7183 125.268 55.2635ZM158.03 68.5931C157.843 69.5679 157.956 70.7695 157.42 71.48C154.367 75.5212 157.461 76.7078 160.402 78.5083C162.257 74.0994 163.97 70.0281 165.689 65.9639C170.545 67.4218 170.971 67.8309 172.033 72.2513C172.713 75.0818 173.26 77.9491 174.07 80.7406C174.335 81.6531 175.106 82.8286 175.894 83.0686C176.75 83.3294 178.237 82.956 178.842 82.2997C180.039 81.003 181.108 79.4278 181.716 77.7782C183.807 72.1034 185.723 66.3618 187.611 60.6147C188.509 57.8788 188.592 55.8775 184.509 55.8409C181.428 55.8133 180.075 56.7853 179.131 59.587C178.274 62.1272 176.738 64.4381 175.501 66.8502C174.907 66.8649 174.313 66.8797 173.719 66.8945C172.163 62.698 170.819 58.4031 168.938 54.3579C168.271 52.9252 166.296 52.1011 164.919 50.9992C163.915 52.3687 162.525 53.6013 161.981 55.134C160.506 59.2877 159.39 63.5687 158.03 68.5931ZM86.0836 58.577C87.6572 52.9949 89.9948 47.4763 90.4664 41.8025C90.6861 39.1599 87.9143 34.9182 85.3891 33.6989C81.0768 31.6165 75.9324 30.9128 71.0589 30.4396C66.679 30.0142 63.8569 33.3736 63.1116 37.9848C62.5632 41.3774 61.6987 44.7459 60.6644 48.0272C58.6015 54.5719 61.6683 59.383 68.4279 59.97C71.7035 60.2544 74.9758 60.9649 78.2375 60.8978C80.8119 60.8449 83.3678 59.898 86.0836 58.577ZM149.603 64.5882C152.127 60.4661 148.156 60.2666 146.152 59.3304C143.122 57.9149 139.849 57.018 136.682 55.9016C137.462 53.8647 137.977 52.5202 138.488 51.1858C141.708 51.1858 144.847 50.9773 147.948 51.2295C154.283 51.7446 154.275 51.8466 155.015 49.9699C149.919 48.2535 144.789 46.5759 139.697 44.7904C137.045 43.8605 134.597 43.2514 133.149 46.5654C133.149 46.5654 127.42 57.044 127.282 57.2979C132.861 58.7331 130.234 62.2289 128.588 64.5714C126.266 67.8755 126.983 69.4052 130.545 70.1135C136.132 71.2242 141.737 72.2646 147.37 73.0957C148.809 73.3082 150.382 72.6228 151.893 72.35C151.856 71.908 151.819 71.466 151.782 71.024C146.824 69.7912 141.831 68.6813 136.937 67.2337C135.803 66.8981 135.009 65.4102 134.059 64.4525C135.345 63.796 136.718 62.4594 137.902 62.609C141.62 63.0787 145.267 64.1079 149.603 64.5882ZM202.639 76.8457C205.65 80.0662 208.594 78.2832 210.945 76.2197C212.795 74.5966 210.586 68.3769 207.583 67.6235C205.419 67.0803 201.489 67.5622 200.716 68.9278C199.628 70.8508 197.115 74.7835 202.639 76.8457ZM73.3168 23.019C71.4849 22.2535 69.6977 21.2881 67.79 20.8615C67.3061 20.7533 66.0341 22.2681 65.8212 23.1968C65.1069 26.3128 67.4366 27.1868 69.7698 27.5654C72.6002 28.0246 74.1294 26.7605 73.3168 23.019ZM93.0122 29.5307C92.4679 28.5587 92.1149 26.985 91.3399 26.7385C89.6672 26.2067 87.7778 26.3562 85.977 26.227C85.9496 27.3922 85.444 29.1826 85.9891 29.5996C87.355 30.6445 89.1592 31.2178 90.8713 31.6454C91.3644 31.7686 92.1418 30.7535 93.0122 29.5307Z" fill="#F3F3F3"/>
<path d="M211.741 103C211.563 102.707 211.385 102.414 211.206 102.122C219.311 97.3478 215.164 89.0859 216.301 82.5289C217.351 76.4713 215.994 69.9516 215.364 63.6688C215.049 60.5257 213.992 57.4568 213.412 54.9637C211.181 54.4539 209.321 54.1052 207.504 53.6006C200.083 51.5398 192.764 49.0026 185.24 47.4504C176.111 45.5668 166.197 45.9686 157.838 42.4776C153.469 40.653 149.017 38.2546 144.331 37.1989C130.786 34.1479 117.109 31.69 103.532 28.7723C98.7924 27.7538 94.203 26.0467 89.5313 24.7011C79.9442 21.9395 70.3489 19.2064 60.7548 16.4691C57.8318 15.6351 54.8918 14.8592 51.977 13.9979C46.7026 12.4394 41.4986 10.5998 36.1604 9.3111C29.1359 7.61527 22.0088 6.34443 14.9283 4.87858C10.6031 3.98315 6.2691 3.12235 1.9717 2.10789C1.1124 1.90505 0.401046 1.07669 0 0.226484C15.5102 -0.0837885 30.6418 -0.0837886 46.378 0.279364C49.54 1.58455 52.0821 2.57107 54.6577 3.46054C63.4686 6.50325 72.221 9.7418 81.1319 12.4596C88.066 14.5744 95.2446 15.8748 102.239 17.8094C110.186 20.0075 118.001 22.6845 125.96 24.8328C135.713 27.4654 145.56 29.7516 155.359 32.2136C164.903 34.6114 174.435 37.0579 183.979 39.4538C192.587 41.6147 201.189 43.8 209.823 45.8516C215.187 47.1262 220.606 48.1718 226 49.3203C226 54.8318 226 60.3434 225.623 66.3713C224.688 67.5403 224.131 68.1931 223.234 68.8738C223.929 70.6085 224.964 72.3154 226 74.0223C226 83.3071 226 92.5918 225.516 102.36C220.602 102.896 216.172 102.948 211.741 103Z" fill="#090909"/>
<path d="M4.44732 9.68655C3.07871 10.9809 1.8448 11.9485 0.305446 12.958C2.98023e-08 8.79046 0 4.58091 0 0C1.31721 0 2.65865 0 4.50004 0C4.86067 3.11991 4.72135 6.23982 4.44732 9.68655Z" fill="#090909"/>
<path d="M198.001 0.998066C197.668 0.912861 197.402 0.729728 197.102 0.224334C197 0 197.5 0 197.75 0C198 0.166899 198 0.333797 198 0.750347C198 0.999999 198.001 0.998066 198.001 0.998066Z" fill="#1E1E1E"/>
<path d="M44.6992 51.8744C40.8405 54.534 30.2105 55.0796 27.1204 52.3603C25.8025 51.2005 24.9358 48.7037 25.0556 46.8933C25.3787 42.0143 26.4428 37.1896 27.0216 32.3207C27.5121 28.1945 27.7357 24.0367 28.2088 18.2994C30.3118 15.0557 34.0378 18.7527 37.5785 18.983C43.5332 19.3703 47.7799 22.2143 50.6293 27.294C51.2401 28.3829 52.0301 29.7969 51.8022 30.8609C50.3989 37.4145 48.7692 43.9216 47.074 50.4073C46.9212 50.9922 45.7703 51.3162 44.6992 51.8744ZM34.1961 27.5063C33.6505 31.7676 33.0297 36.021 32.5863 40.2929C32.3002 43.05 32.274 45.834 32.1314 48.606C35.1949 48.0664 38.6803 48.2755 41.236 46.8349C46.9554 43.6112 46.677 37.008 47.6485 31.5969C48.0065 29.6034 45.1533 26.015 42.8935 24.8626C40.7301 23.7594 37.4361 24.8734 34.4552 25.0221C34.4516 25.0888 34.408 25.8979 34.1961 27.5063Z" fill="#0E0E0E"/>
<path d="M125.144 55.6646C124.399 57.7183 124.019 59.5179 123.116 60.9987C118.689 68.2599 112.594 70.0858 104.417 66.7798C103.809 66.5342 103.21 66.2417 102.578 66.0903C96.8195 64.7099 95.6409 63.0333 97.1085 57.2768C98.648 51.2389 100.367 45.2375 102.28 39.3079C103.392 35.8629 105.523 34.3335 109.466 36.1227C113.13 37.7847 117.4 38.2104 120.895 40.1142C124.623 42.145 125.617 46.1722 125.397 50.3663C125.312 51.9965 125.309 53.631 125.144 55.6646ZM103.958 59.8393C104.033 64.2179 107.536 62.7164 109.443 62.5204C115.75 61.8722 119.68 57.0298 119.995 50.2922C120.218 45.5038 117.036 42.7816 108.991 41.1704C107.383 47.0901 105.767 53.044 103.958 59.8393Z" fill="#0D0D0D"/>
<path d="M158.081 68.1962C159.39 63.5687 160.506 59.2877 161.981 55.134C162.525 53.6013 163.915 52.3687 164.919 50.9991C166.296 52.1011 168.271 52.9252 168.938 54.3579C170.819 58.4031 172.163 62.698 173.719 66.8945C174.313 66.8797 174.907 66.8649 175.501 66.8502C176.738 64.4381 178.274 62.1272 179.131 59.587C180.075 56.7853 181.428 55.8133 184.509 55.8409C188.592 55.8775 188.509 57.8788 187.611 60.6147C185.723 66.3618 183.807 72.1034 181.716 77.7782C181.108 79.4278 180.039 81.0029 178.842 82.2997C178.237 82.956 176.75 83.3294 175.894 83.0686C175.106 82.8286 174.335 81.6531 174.07 80.7406C173.26 77.9491 172.713 75.0818 172.033 72.2513C170.971 67.8309 170.545 67.4218 165.686 65.9604C163.97 70.0281 162.257 74.0994 160.402 78.5083C157.461 76.7077 154.367 75.5211 157.42 71.4799C157.956 70.7695 157.843 69.5679 158.081 68.1962Z" fill="#0B0B0B"/>
<path d="M86.0078 58.9625C83.3678 59.898 80.8119 60.8449 78.2375 60.8978C74.9758 60.9649 71.7035 60.2544 68.4279 59.97C61.6683 59.383 58.6015 54.5719 60.6644 48.0272C61.6987 44.7459 62.5632 41.3774 63.1116 37.9848C63.8569 33.3736 66.679 30.0142 71.0589 30.4395C75.9324 30.9128 81.0768 31.6165 85.3891 33.6988C87.9143 34.9182 90.6861 39.1599 90.4664 41.8025C89.9948 47.4762 87.6572 52.9949 86.0078 58.9625ZM83.2867 38.2595C82.8357 38.0494 82.3493 37.893 81.9391 37.6214C74.3462 32.5936 70.6426 33.9907 68.7564 42.595C68.4775 43.8673 68.0354 45.1095 67.8306 46.3915C66.8573 52.4841 70.8159 56.7705 76.9526 56.3266C83.7609 55.834 87.7027 45.8373 83.2867 38.2595Z" fill="#0D0D0D"/>
<path d="M149.272 64.7543C145.267 64.1079 141.62 63.0787 137.902 62.609C136.718 62.4594 135.345 63.796 134.059 64.4525C135.009 65.4102 135.803 66.8981 136.937 67.2338C141.831 68.6813 146.824 69.7912 151.782 71.024C151.819 71.466 151.856 71.908 151.893 72.35C150.382 72.6229 148.809 73.3082 147.37 73.0957C141.737 72.2646 136.131 71.2243 130.545 70.1135C126.983 69.4052 126.266 67.8755 128.588 64.5714C130.234 62.2289 132.861 58.7331 127.282 57.298C127.42 57.044 133.149 46.5654 133.149 46.5654C134.597 43.2514 137.045 43.8605 139.697 44.7904C144.789 46.5759 149.919 48.2535 155.015 49.9699C154.275 51.8467 154.283 51.7446 147.948 51.2295C144.847 50.9773 141.708 51.1858 138.488 51.1858C137.977 52.5202 137.462 53.8647 136.681 55.9016C139.849 57.0181 143.122 57.9149 146.152 59.3304C148.156 60.2666 152.127 60.4661 149.272 64.7543Z" fill="#121212"/>
<path d="M202.333 76.6273C197.115 74.7835 199.628 70.8508 200.716 68.9278C201.489 67.5622 205.419 67.0803 207.583 67.6235C210.586 68.3769 212.795 74.5966 210.945 76.2198C208.594 78.2832 205.65 80.0662 202.333 76.6273Z" fill="#0D0D0D"/>
<path d="M10.1843 31.2224C4.96707 29.3786 7.47972 25.4459 8.56777 23.5228C9.34038 22.1573 13.2703 21.6754 15.4348 22.2186C18.4372 22.972 20.6469 29.1917 18.7969 30.8148C16.4451 32.8783 13.5019 34.6613 10.1843 31.2224Z" fill="#0D0D0D"/>
<path d="M73.5128 23.3618C74.1294 26.7605 72.6002 28.0246 69.7698 27.5654C67.4366 27.1868 65.1069 26.3128 65.8212 23.1968C66.0341 22.2681 67.3061 20.7533 67.79 20.8615C69.6977 21.2881 71.4849 22.2535 73.5128 23.3618Z" fill="#151515"/>
<path d="M92.9006 29.8955C92.1418 30.7535 91.3644 31.7686 90.8713 31.6455C89.1592 31.2178 87.355 30.6445 85.9891 29.5996C85.444 29.1826 85.9497 27.3922 85.977 26.227C87.7778 26.3562 89.6672 26.2067 91.3399 26.7386C92.1149 26.985 92.4679 28.5587 92.9006 29.8955Z" fill="#151515"/>
<path d="M197.999 1.00067C198.11 1.13508 198.222 1.2688 198.333 1.40252C198.255 1.35451 198.177 1.30651 198.05 1.12827C198.001 0.998044 197.999 1.00067 197.999 1.00067Z" fill="#1E1E1E"/>
<path d="M112.279 96.5104C111.55 96.5159 111.032 96.316 110.514 96.1161C110.644 95.8495 110.775 95.583 110.905 95.3164C111.434 95.6459 111.962 95.9754 112.279 96.5104Z" fill="#080808"/>
<path d="M34.2802 27.1067C34.408 25.8979 34.4516 25.0888 34.4552 25.0221C37.4361 24.8734 40.7301 23.7594 42.8935 24.8626C45.1533 26.015 48.0065 29.6034 47.6485 31.5968C46.677 37.008 46.9554 43.6112 41.236 46.8349C38.6803 48.2755 35.1949 48.0664 32.1314 48.606C32.274 45.834 32.3002 43.0499 32.5863 40.2929C33.0297 36.021 33.6505 31.7676 34.2802 27.1067Z" fill="#F1F1F1"/>
<path d="M104.055 59.4186C105.767 53.044 107.383 47.0901 108.991 41.1704C117.036 42.7816 120.218 45.5037 119.995 50.2922C119.68 57.0298 115.75 61.8721 109.443 62.5204C107.536 62.7164 104.033 64.2179 104.055 59.4186Z" fill="#F0F0F0"/>
<path d="M83.5859 38.5021C87.7027 45.8373 83.7609 55.834 76.9526 56.3266C70.8159 56.7706 66.8573 52.4841 67.8306 46.3915C68.0354 45.1096 68.4775 43.8674 68.7564 42.595C70.6426 33.9907 74.3462 32.5936 81.9391 37.6214C82.3493 37.893 82.8357 38.0495 83.5859 38.5021Z" fill="#F1F1F1"/>
<path d="M13.8403 3C14.0134 3.28446 14.1865 3.5689 14.3596 3.85336C6.49252 8.49154 10.5179 16.5186 9.41473 22.8893C8.39561 28.7747 9.71239 35.1091 10.3235 41.2135C10.6292 44.2672 11.6556 47.2488 12.2185 49.6712C14.3843 50.1664 16.1898 50.5052 17.9533 50.9954C25.1563 52.9977 32.2604 55.4628 39.5633 56.9709C48.4253 58.801 58.0477 58.4105 66.1617 61.8023C70.4025 63.5751 74.7233 65.9053 79.2723 66.931C92.4196 69.8953 105.696 72.2834 118.874 75.1181C123.474 76.1077 127.929 77.7663 132.464 79.0737C141.769 81.7567 151.083 84.4122 160.396 87.0717C163.233 87.882 166.087 88.6359 168.916 89.4727C174.035 90.9869 179.087 92.7742 184.268 94.0263C191.087 95.6739 198.005 96.9086 204.877 98.3328C209.075 99.2028 213.282 100.039 217.454 101.025C218.288 101.222 218.978 102.027 219.367 102.853C204.312 103.154 189.625 103.154 174.351 102.801C171.281 101.533 168.814 100.575 166.314 99.7106C157.761 96.7543 149.266 93.6078 140.617 90.9673C133.886 88.9125 126.918 87.6491 120.129 85.7695C112.415 83.6339 104.829 81.0329 97.1037 78.9457C87.637 76.3879 78.0796 74.1667 68.5678 71.7746C59.304 69.445 50.0521 67.0681 40.7879 64.7402C32.4327 62.6407 24.0827 60.5176 15.7021 58.5243C10.4954 57.2859 5.23583 56.27 0 55.1542C0 49.7992 -2.98023e-08 44.4443 0.366272 38.5878C1.27319 37.4519 1.81386 36.8177 2.68504 36.1564C2.01036 34.4709 1.00517 32.8125 0 31.1542C0 22.1333 5.06639e-07 13.1124 0.469604 3.62146C5.23958 3.10096 9.53992 3.05048 13.8403 3Z" fill="#090909"/>
</svg>
