<svg version="1.1" id="Layer_1" xmlns="http://www.w3.org/2000/svg" xmlns:xlink="http://www.w3.org/1999/xlink" x="0px" y="0px"
	 width="100%" viewBox="0 0 226 101" enable-background="new 0 0 226 101" xml:space="preserve">
<path fill="#F3F3F3" opacity="1.000000" stroke="none" 
	d="
M6.000000,1.000000 
	C6.444336,1.000000 6.888672,1.000000 7.299089,1.301455 
	C8.021862,2.127500 8.712339,2.932312 9.546417,3.129395 
	C13.717699,4.115025 17.924551,4.951357 22.122799,5.821340 
	C28.995453,7.245526 35.913383,8.480252 42.731754,10.127885 
	C47.913326,11.379992 52.964600,13.167296 58.084190,14.681502 
	C60.913456,15.518306 63.767151,16.272148 66.604401,17.082420 
	C75.916924,19.741926 85.230629,22.397434 94.536392,25.080462 
	C99.070892,26.387842 103.525642,28.046413 108.126198,29.036036 
	C121.304306,31.870775 134.580444,34.258812 147.727692,37.223141 
	C152.276703,38.248814 156.597458,40.579060 160.838318,42.351822 
	C168.952271,45.743618 178.574677,45.353172 187.436661,47.183239 
	C194.739594,48.691357 201.843689,51.156437 209.046661,53.158718 
	C210.810150,53.648930 212.615707,53.987774 214.781525,54.483009 
	C215.344421,56.905319 216.370819,59.886936 216.676529,62.940697 
	C217.287613,69.045013 218.604385,75.379440 217.585266,81.264832 
	C216.482132,87.635536 220.507477,95.662621 212.640366,100.300804 
	C212.813492,100.585258 212.986603,100.869705 212.953400,101.157059 
	C212.335556,101.125229 211.924042,101.090500 211.896866,100.704651 
	C211.723129,99.635933 211.308624,98.529457 210.584335,98.262062 
	C204.605713,96.054855 198.679352,93.576965 192.527954,91.994003 
	C180.091248,88.793625 167.529404,86.076332 155.005798,83.218369 
	C150.021820,82.080994 145.002411,81.098869 139.689682,79.813934 
	C135.587006,78.755432 131.793762,77.929054 127.718575,76.802048 
	C119.291870,75.125366 111.147133,73.749336 102.574890,72.240082 
	C97.763588,71.485901 93.379776,70.864944 88.814743,69.879951 
	C82.755394,68.388435 76.877281,67.260963 70.605927,66.015259 
	C63.076427,64.167557 55.944401,62.420368 48.802647,60.713863 
	C42.332027,59.167728 35.691582,58.136776 29.418047,56.015152 
	C22.852716,53.794846 16.625225,50.568283 10.269407,47.738113 
	C5.427141,45.581905 1.296157,43.009460 4.047657,36.556900 
	C4.342462,35.865551 4.033584,34.926674 4.045660,34.103218 
	C4.109459,29.753067 6.848436,27.908854 11.035089,29.096754 
	C13.906551,29.911488 16.893642,30.318695 19.829046,30.908070 
	C20.296753,30.183094 20.764458,29.458117 21.232164,28.733139 
	C18.716709,25.299162 16.201254,21.865185 13.685798,18.431206 
	C13.178709,18.564671 12.671621,18.698133 12.164533,18.831596 
	C11.550303,21.408920 10.936075,23.986242 10.285265,26.717064 
	C7.194185,26.560747 5.844647,25.371893 6.152356,21.737448 
	C6.450860,18.211725 5.637624,14.591879 5.447324,10.686548 
	C5.721347,7.239818 5.860673,4.119909 6.000000,1.000000 
M46.082951,52.761337 
	C46.770332,52.316181 47.921188,51.992161 48.074047,51.407303 
	C49.769192,44.921547 51.398865,38.414463 52.802223,31.860891 
	C53.030060,30.796915 52.240120,29.382860 51.629341,28.294010 
	C48.779942,23.214323 44.533241,20.370275 38.578484,19.982973 
	C35.037754,19.752680 31.311808,16.055729 29.208838,19.299385 
	C28.735718,25.036646 28.512110,29.194519 28.021591,33.320663 
	C27.442768,38.189625 26.378725,43.014297 26.055637,47.893307 
	C25.935755,49.703663 26.802467,52.200535 28.120398,53.360298 
	C31.210520,56.079571 41.840454,55.533939 46.082951,52.761337 
M126.268181,56.263512 
	C126.308739,54.630978 126.311714,52.996471 126.397186,51.366291 
	C126.617058,47.172150 125.622520,43.144989 121.894653,41.114162 
	C118.400101,39.210434 114.129509,38.784702 110.466232,37.122704 
	C106.522522,35.333477 104.391953,36.862881 103.280479,40.307915 
	C101.367439,46.237450 99.647949,52.238895 98.108536,58.276783 
	C96.640862,64.033264 97.819534,65.709930 103.577614,67.090256 
	C104.209534,67.241730 104.809425,67.534233 105.416718,67.779762 
	C113.593765,71.085770 119.688736,69.259933 124.116386,61.998692 
	C125.019341,60.517883 125.399460,58.718269 126.268181,56.263512 
M159.029694,69.593102 
	C158.842850,70.567879 158.956238,71.769485 158.419510,72.479958 
	C155.366562,76.521156 158.461044,77.707756 161.401611,79.508331 
	C163.256943,75.099388 164.970184,71.028107 166.688873,66.963875 
	C171.544739,68.421829 171.970993,68.830910 173.032852,73.251305 
	C173.712769,76.081795 174.259628,78.949074 175.070160,81.740616 
	C175.335098,82.653099 176.106079,83.828644 176.893936,84.068611 
	C177.750137,84.329384 179.236847,83.955994 179.842377,83.299736 
	C181.038895,82.002953 182.108353,80.427773 182.716202,78.778244 
	C184.807358,73.103386 186.722549,67.361847 188.610504,61.614746 
	C189.509277,58.878803 189.591888,56.877480 185.509277,56.840931 
	C182.427887,56.813347 181.075394,57.785339 180.130753,60.586994 
	C179.274261,63.127224 177.737671,65.438141 176.500946,67.850159 
	C175.907089,67.864922 175.313232,67.879692 174.719360,67.894463 
	C173.163376,63.697968 171.818970,59.403061 169.937592,55.357903 
	C169.271225,53.925167 167.296143,53.101097 165.918533,51.999153 
	C164.914642,53.368664 163.525345,54.601311 162.981079,56.134033 
	C161.506165,60.287701 160.389877,64.568718 159.029694,69.593102 
M87.083580,59.577019 
	C88.657211,53.994888 90.994774,48.476261 91.466408,42.802517 
	C91.686081,40.159878 88.914284,35.918243 86.389061,34.698853 
	C82.076775,32.616512 76.932396,31.912823 72.058914,31.439556 
	C67.678963,31.014212 64.856918,34.373623 64.111557,38.984848 
	C63.563175,42.377426 62.698662,45.745926 61.664394,49.027248 
	C59.601543,55.571884 62.668324,60.383022 69.427895,60.969967 
	C72.703514,61.254398 75.975784,61.964943 79.237549,61.897839 
	C81.811882,61.844872 84.367828,60.897968 87.083580,59.577019 
M150.602890,65.588181 
	C153.126831,61.466064 149.156036,61.266567 147.151978,60.330421 
	C144.121628,58.914864 140.848969,58.018047 137.681503,56.901577 
	C138.461990,54.864666 138.977173,53.520157 139.488464,52.185772 
	C142.707718,52.185772 145.846680,51.977257 148.948181,52.229458 
	C155.282867,52.744560 155.274567,52.846649 156.015457,50.969891 
	C150.918777,49.253464 145.788834,47.575897 140.696747,45.790390 
	C138.044693,44.860470 135.596680,44.251377 134.148941,47.565407 
	C134.148941,47.565407 128.420471,58.044022 128.281662,58.297947 
	C133.861496,59.733097 131.234421,63.228935 129.588013,65.571434 
	C127.265747,68.875519 127.983253,70.405205 131.545395,71.113503 
	C137.131500,72.224243 142.736969,73.264618 148.369522,74.095734 
	C149.809387,74.308205 151.381729,73.622849 152.893188,73.349991 
	C152.855988,72.907997 152.818787,72.465996 152.781586,72.024002 
	C147.824402,70.791191 142.830872,69.681320 137.937225,68.233742 
	C136.802704,67.898125 136.009033,66.410187 135.058517,65.452492 
	C136.345093,64.795967 137.717590,63.459354 138.902313,63.609028 
	C142.619858,64.078682 146.266739,65.107918 150.602890,65.588181 
M203.639053,77.845695 
	C206.650299,81.066238 209.593552,79.283211 211.945343,77.219749 
	C213.795319,75.596596 211.585617,69.376907 208.583237,68.623505 
	C206.418716,68.080338 202.488785,68.562233 201.716171,69.927773 
	C200.628128,71.850845 198.115479,75.783493 203.639053,77.845695 
M74.316826,24.019018 
	C72.484901,23.253517 70.697678,22.288065 68.789970,21.861500 
	C68.306107,21.753304 67.034134,23.268053 66.821213,24.196833 
	C66.106873,27.312794 68.436554,28.186810 70.769783,28.565384 
	C73.600174,29.024620 75.129372,27.760458 74.316826,24.019018 
M94.012207,30.530653 
	C93.467896,29.558672 93.114914,27.984957 92.339912,27.738537 
	C90.667160,27.206676 88.777756,27.356220 86.976990,27.226973 
	C86.949654,28.392176 86.444023,30.182594 86.989082,30.599573 
	C88.355019,31.644529 90.159218,32.217823 91.871269,32.645435 
	C92.364395,32.768600 93.141838,31.753481 94.012207,30.530653 
z"/>
<path fill="#080808" opacity="1.000000" stroke="none" 
	d="
M5.312627,11.013369 
	C5.637624,14.591879 6.450860,18.211725 6.152356,21.737448 
	C5.844647,25.371893 7.194185,26.560747 10.285265,26.717064 
	C10.936075,23.986242 11.550303,21.408920 12.164533,18.831596 
	C12.671621,18.698133 13.178709,18.564671 13.685798,18.431206 
	C16.201254,21.865185 18.716709,25.299162 21.232164,28.733139 
	C20.764458,29.458117 20.296753,30.183094 19.829046,30.908070 
	C16.893642,30.318695 13.906551,29.911488 11.035089,29.096754 
	C6.848436,27.908854 4.109459,29.753067 4.045660,34.103218 
	C4.033584,34.926674 4.342462,35.865551 4.047657,36.556900 
	C1.296157,43.009460 5.427141,45.581905 10.269407,47.738113 
	C16.625225,50.568283 22.852716,53.794846 29.418047,56.015152 
	C35.691582,58.136776 42.332027,59.167728 48.802647,60.713863 
	C55.944401,62.420368 63.076427,64.167557 70.559311,66.356171 
	C70.042519,68.175049 69.179108,69.534798 68.081779,71.262932 
	C71.230728,72.691338 74.160782,74.020439 77.532875,75.550064 
	C76.343643,81.883278 74.992615,89.078087 73.448837,97.299377 
	C71.551102,95.794983 69.563156,94.219086 66.964561,92.159103 
	C67.354660,95.431213 67.676804,98.133316 67.535675,100.910355 
	C45.048267,100.990189 23.024134,100.995094 1.000000,101.000000 
	C1.000000,72.312439 1.000000,43.624878 1.305446,14.426659 
	C2.844803,12.948459 4.078715,11.980913 5.312627,11.013369 
z"/>
<path fill="#090909" opacity="1.000000" stroke="none" 
	d="
M77.000000,0.999999 
	C117.020897,1.000000 157.041794,1.000000 197.633148,1.224334 
	C198.402130,1.729728 198.668076,1.912861 199.050110,2.128294 
	C199.176941,2.306530 199.255127,2.354537 199.333313,2.402543 
	C199.221588,2.268825 199.109879,2.135107 198.999374,1.751042 
	C199.000381,1.333797 199.000198,1.166899 199.000000,1.000000 
	C206.354248,1.000000 213.708496,1.000000 221.547226,1.313655 
	C222.233109,5.464266 225.733337,2.393658 227.000000,4.000000 
	C227.000000,15.354228 227.000000,26.708456 226.609207,38.476498 
	C203.151382,34.658024 180.084351,30.425735 156.369644,26.074612 
	C157.395737,24.600222 157.931320,23.830622 158.908920,22.425909 
	C152.191742,20.997221 146.016235,19.522745 139.769852,18.467985 
	C138.201202,18.203102 136.260696,19.945704 134.742844,19.613928 
	C131.289047,18.858990 128.041245,17.214706 124.621826,16.240284 
	C109.228020,11.853557 93.797707,7.594820 78.411079,3.183494 
	C77.783630,3.003606 77.463379,1.752186 77.000000,0.999999 
z"/>
<path fill="#090909" opacity="1.000000" stroke="none" 
	d="
M213.159729,101.154160 
	C212.986603,100.869705 212.813492,100.585258 212.640366,100.300804 
	C220.507477,95.662621 216.482132,87.635536 217.585266,81.264832 
	C218.604385,75.379440 217.287613,69.045013 216.676529,62.940697 
	C216.370819,59.886936 215.344421,56.905319 214.781525,54.483009 
	C212.615707,53.987774 210.810150,53.648930 209.046661,53.158718 
	C201.843689,51.156437 194.739594,48.691357 187.436661,47.183239 
	C178.574677,45.353172 168.952271,45.743618 160.838318,42.351822 
	C156.597458,40.579060 152.276703,38.248814 147.727692,37.223141 
	C134.580444,34.258812 121.304306,31.870775 108.126198,29.036036 
	C103.525642,28.046413 99.070892,26.387842 94.536392,25.080462 
	C85.230629,22.397434 75.916924,19.741926 66.604401,17.082420 
	C63.767151,16.272148 60.913456,15.518306 58.084190,14.681502 
	C52.964600,13.167296 47.913326,11.379992 42.731754,10.127885 
	C35.913383,8.480252 28.995453,7.245526 22.122799,5.821340 
	C17.924551,4.951357 13.717699,4.115025 9.546417,3.129395 
	C8.712339,2.932312 8.021862,2.127500 7.632586,1.301455 
	C22.687561,1.000000 37.375122,1.000000 52.649456,1.352832 
	C55.718662,2.620928 58.186161,3.579404 60.686249,4.443601 
	C69.238518,7.399832 77.734024,10.546350 86.383492,13.186906 
	C93.114029,15.241644 100.082016,16.505032 106.871231,18.384695 
	C114.584839,20.520285 122.170761,23.121223 129.896301,25.208508 
	C139.363037,27.766222 148.920395,29.987463 158.432220,32.379520 
	C167.695984,34.709198 176.947906,37.086090 186.212128,39.413971 
	C194.567261,41.513416 202.917252,43.636597 211.297928,45.629871 
	C216.504593,46.868240 221.764175,47.884209 227.000000,49.000000 
	C227.000000,54.354931 227.000000,59.709858 226.633728,65.566406 
	C225.726807,66.702263 225.186142,67.336502 224.314957,67.997803 
	C224.989639,69.683235 225.994827,71.341614 227.000000,73.000000 
	C227.000000,82.020897 227.000000,91.041786 226.530396,100.532700 
	C221.760422,101.053200 217.460083,101.103676 213.159729,101.154160 
z"/>
<path fill="#F1F1F1" opacity="1.000000" stroke="none" 
	d="
M227.000000,48.545891 
	C221.764175,47.884209 216.504593,46.868240 211.297928,45.629871 
	C202.917252,43.636597 194.567261,41.513416 186.212128,39.413971 
	C176.947906,37.086090 167.695984,34.709198 158.432220,32.379520 
	C148.920395,29.987463 139.363037,27.766222 129.896301,25.208508 
	C122.170761,23.121223 114.584839,20.520285 106.871231,18.384695 
	C100.082016,16.505032 93.114029,15.241644 86.383492,13.186906 
	C77.734024,10.546350 69.238518,7.399832 60.686249,4.443601 
	C58.186161,3.579404 55.718662,2.620928 53.118114,1.352832 
	C60.687576,1.000000 68.375153,1.000000 76.531364,0.999999 
	C77.463379,1.752186 77.783630,3.003606 78.411079,3.183494 
	C93.797707,7.594820 109.228020,11.853557 124.621826,16.240284 
	C128.041245,17.214706 131.289047,18.858990 134.742844,19.613928 
	C136.260696,19.945704 138.201202,18.203102 139.769852,18.467985 
	C146.016235,19.522745 152.191742,20.997221 158.908920,22.425909 
	C157.931320,23.830622 157.395737,24.600222 156.369644,26.074612 
	C180.084351,30.425735 203.151382,34.658024 226.609207,38.945156 
	C227.000000,42.030594 227.000000,45.061188 227.000000,48.545891 
z"/>
<path fill="#FCFCFC" opacity="1.000000" stroke="none" 
	d="
M212.953400,101.157051 
	C217.460083,101.103676 221.760422,101.053200 226.530396,101.001358 
	C225.504028,101.333328 224.008240,101.957336 222.512054,101.958298 
	C148.674728,102.005898 74.837364,102.000000 1.000000,101.500000 
	C23.024134,100.995094 45.048267,100.990189 67.974899,100.986298 
	C71.251701,100.936653 73.626007,100.886009 76.412437,100.910278 
	C78.216309,100.935242 79.608047,100.885284 81.395485,100.911469 
	C82.860863,100.937027 83.930550,100.886444 85.457306,100.910675 
	C91.008141,100.253365 96.754768,103.086113 101.420181,98.120056 
	C103.897079,96.044998 106.042755,94.056328 108.475578,91.972748 
	C109.502213,91.235313 110.241699,90.592789 111.367386,89.927193 
	C115.399643,90.145958 114.189613,91.586868 112.506546,93.063026 
	C109.804283,95.433060 107.064575,97.760384 103.493599,100.835136 
	C108.362251,100.835136 111.681305,100.835136 115.462654,100.910156 
	C121.283195,100.935646 126.641441,100.886116 132.423340,100.912872 
	C134.564758,100.937904 136.282532,100.886642 138.455719,100.910446 
	C142.607300,100.935379 146.303467,100.885254 150.462784,100.911438 
	C171.121475,101.010414 191.316986,101.033089 211.512512,101.055771 
	C211.924042,101.090500 212.335556,101.125229 212.953400,101.157051 
z"/>
<path fill="#090909" opacity="1.000000" stroke="none" 
	d="
M5.447324,10.686548 
	C4.078715,11.980913 2.844803,12.948459 1.305446,13.958002 
	C1.000000,9.790458 1.000000,5.580915 1.000000,1.000000 
	C2.317215,1.000000 3.658645,1.000000 5.500038,1.000000 
	C5.860673,4.119909 5.721347,7.239818 5.447324,10.686548 
z"/>
<path fill="#454545" opacity="1.000000" stroke="none" 
	d="
M227.000000,72.583336 
	C225.994827,71.341614 224.989639,69.683235 224.696991,68.126450 
	C225.939682,68.152039 226.469833,68.076019 227.000000,68.000000 
	C227.000000,69.388893 227.000000,70.777779 227.000000,72.583336 
z"/>
<path fill="#1A1A1A" opacity="1.000000" stroke="none" 
	d="
M227.000000,3.500000 
	C225.733337,2.393658 222.233109,5.464266 222.015854,1.313655 
	C223.448151,2.212966 226.928879,-1.655511 227.000000,3.500000 
z"/>
<path fill="#8C8C8C" opacity="1.000000" stroke="none" 
	d="
M227.000000,67.666664 
	C226.469833,68.076019 225.939682,68.152039 225.027496,68.099396 
	C225.186142,67.336502 225.726807,66.702263 226.633728,66.034012 
	C227.000000,66.444443 227.000000,66.888885 227.000000,67.666664 
z"/>
<path fill="#1E1E1E" opacity="1.000000" stroke="none" 
	d="
M199.001450,1.998066 
	C198.668076,1.912861 198.402130,1.729728 198.101807,1.224334 
	C198.000000,1.000000 198.500000,1.000000 198.750000,1.000000 
	C199.000198,1.166899 199.000381,1.333797 199.000290,1.750347 
	C199.000000,1.999999 199.001450,1.998066 199.001450,1.998066 
z"/>
<path fill="#090909" opacity="1.000000" stroke="none" 
	d="
M138.000305,100.835388 
	C136.282532,100.886642 134.564758,100.937904 132.432587,100.545029 
	C132.429138,99.236137 132.697464,98.257462 133.279190,97.529076 
	C134.726486,95.716881 136.316559,94.018730 138.426590,91.617973 
	C141.087906,92.247772 145.260941,93.235321 149.433960,94.222862 
	C149.790573,93.470711 150.147171,92.718559 150.503769,91.966408 
	C148.247574,90.015938 146.143967,86.642548 143.706635,86.381172 
	C136.324341,85.589478 128.762665,85.122391 121.371834,86.306107 
	C121.360054,86.914207 121.348274,87.522301 121.336494,88.130394 
	C123.079788,88.371223 124.823082,88.612053 126.748833,88.878090 
	C126.350670,91.759727 125.952415,94.642075 125.511047,97.836411 
	C121.540604,97.566124 116.566177,93.943970 115.000366,100.835136 
	C111.681305,100.835136 108.362251,100.835136 103.493599,100.835136 
	C107.064575,97.760384 109.804283,95.433060 112.506546,93.063026 
	C114.189613,91.586868 115.399643,90.145958 111.225372,89.607620 
	C110.227875,87.991768 109.758575,86.672409 109.250336,85.243546 
	C105.965981,87.848312 103.014900,90.188759 100.063828,92.529205 
	C100.182091,92.906792 100.300354,93.284378 100.418617,93.661957 
	C103.008560,93.130524 105.598503,92.599091 108.188438,92.067657 
	C106.042755,94.056328 103.897079,96.044998 101.272919,97.803146 
	C99.128677,91.980965 93.623238,95.218254 91.645584,94.410492 
	C91.645584,89.938362 91.645584,86.799713 91.645584,83.661064 
	C91.245018,83.491470 90.844444,83.321877 90.443878,83.152283 
	C89.991844,89.084938 86.740669,89.819397 82.040756,88.647301 
	C80.942680,88.373451 78.517052,89.471039 78.366898,90.256050 
	C78.130089,91.494133 79.040955,93.988808 79.923775,94.222534 
	C83.538185,95.179451 84.393333,97.813766 85.000229,100.835861 
	C83.930550,100.886444 82.860863,100.937027 81.442108,100.566330 
	C80.537567,98.792557 80.144707,96.383209 79.398811,96.268448 
	C75.962875,95.739799 75.979332,98.413406 76.000305,100.835365 
	C73.626007,100.886009 71.251701,100.936653 68.438171,100.911362 
	C67.676804,98.133316 67.354660,95.431213 66.964561,92.159103 
	C69.563156,94.219086 71.551102,95.794983 73.448837,97.299377 
	C74.992615,89.078087 76.343643,81.883278 77.532875,75.550064 
	C74.160782,74.020439 71.230728,72.691338 68.081779,71.262932 
	C69.179108,69.534798 70.042519,68.175049 70.952545,66.474396 
	C76.877281,67.260963 82.755394,68.388435 88.739555,70.208115 
	C87.150352,72.456635 85.455101,74.012947 83.336571,75.957855 
	C88.522568,76.711731 92.521545,78.054008 96.284859,77.568718 
	C98.734291,77.252861 103.332085,77.319633 103.002388,72.373306 
	C111.147133,73.749336 119.291870,75.125366 127.766350,77.158318 
	C128.664062,79.239655 129.232040,80.664078 129.381149,81.038025 
	C132.407928,81.280304 134.348343,81.659615 136.246841,81.509438 
	C137.528168,81.408081 138.750443,80.560074 139.999130,80.046066 
	C145.002411,81.098869 150.021820,82.080994 155.005798,83.218369 
	C167.529404,86.076332 180.091248,88.793625 192.527954,91.994003 
	C198.679352,93.576965 204.605713,96.054855 210.584335,98.262062 
	C211.308624,98.529457 211.723129,99.635933 211.896866,100.704651 
	C191.316986,101.033089 171.121475,101.010414 150.394455,100.534317 
	C146.163010,96.692719 139.583893,97.111168 138.000305,100.835388 
M84.557503,83.159851 
	C84.662956,81.981285 84.768402,80.802711 84.873848,79.624146 
	C83.514954,79.691948 82.021133,79.444588 80.848183,79.946732 
	C80.153610,80.244072 79.965775,81.725082 79.550079,82.673851 
	C80.996780,82.954247 82.443481,83.234650 84.557503,83.159851 
M115.167892,78.548592 
	C116.503761,79.160126 117.839630,79.771660 119.175491,80.383194 
	C119.337547,79.676605 119.499596,78.970016 119.661652,78.263428 
	C118.209846,78.139938 116.758034,78.016441 115.167892,78.548592 
M120.445374,92.353996 
	C119.688431,91.654518 118.931488,90.955048 118.174545,90.255569 
	C117.862129,90.728737 117.549713,91.201904 117.237305,91.675079 
	C118.128105,92.044441 119.018906,92.413795 120.445374,92.353996 
M113.490990,97.304901 
	C112.962280,96.975410 112.433578,96.645912 111.904869,96.316422 
	C111.774521,96.582985 111.644180,96.849556 111.513840,97.116119 
	C112.031761,97.316025 112.549683,97.515930 113.490990,97.304901 
z"/>
<path fill="#0E0E0E" opacity="1.000000" stroke="none" 
	d="
M45.699173,52.874340 
	C41.840454,55.533939 31.210520,56.079571 28.120398,53.360298 
	C26.802467,52.200535 25.935755,49.703663 26.055637,47.893307 
	C26.378725,43.014297 27.442768,38.189625 28.021591,33.320663 
	C28.512110,29.194519 28.735718,25.036646 29.208838,19.299385 
	C31.311808,16.055729 35.037754,19.752680 38.578484,19.982973 
	C44.533241,20.370275 48.779942,23.214323 51.629341,28.294010 
	C52.240120,29.382860 53.030060,30.796915 52.802223,31.860891 
	C51.398865,38.414463 49.769192,44.921547 48.074047,51.407303 
	C47.921188,51.992161 46.770332,52.316181 45.699173,52.874340 
M35.196095,28.506298 
	C34.650524,32.767551 34.029747,37.020996 33.586346,41.292854 
	C33.300175,44.049942 33.274029,46.834023 33.131351,49.606007 
	C36.194862,49.066422 39.680340,49.275463 42.236031,47.834934 
	C47.955364,44.611198 47.676960,38.007969 48.648521,32.596848 
	C49.006454,30.603355 46.153271,27.014988 43.893459,25.862597 
	C41.730110,24.759396 38.436081,25.873428 35.455238,26.022127 
	C35.451645,26.088779 35.408012,26.897896 35.196095,28.506298 
z"/>
<path fill="#0D0D0D" opacity="1.000000" stroke="none" 
	d="
M126.144394,56.664566 
	C125.399460,58.718269 125.019341,60.517883 124.116386,61.998692 
	C119.688736,69.259933 113.593765,71.085770 105.416718,67.779762 
	C104.809425,67.534233 104.209534,67.241730 103.577614,67.090256 
	C97.819534,65.709930 96.640862,64.033264 98.108536,58.276783 
	C99.647949,52.238895 101.367439,46.237450 103.280479,40.307915 
	C104.391953,36.862881 106.522522,35.333477 110.466232,37.122704 
	C114.129509,38.784702 118.400101,39.210434 121.894653,41.114162 
	C125.622520,43.144989 126.617058,47.172150 126.397186,51.366291 
	C126.311714,52.996471 126.308739,54.630978 126.144394,56.664566 
M104.958412,60.839287 
	C105.032516,65.217903 108.535759,63.716373 110.442970,63.520359 
	C116.750122,62.872143 120.680107,58.029758 120.994812,51.292194 
	C121.218475,46.503754 118.035751,43.781631 109.990608,42.170387 
	C108.383469,48.090103 106.767052,54.043980 104.958412,60.839287 
z"/>
<path fill="#0B0B0B" opacity="1.000000" stroke="none" 
	d="
M159.080536,69.196167 
	C160.389877,64.568718 161.506165,60.287701 162.981079,56.134033 
	C163.525345,54.601311 164.914642,53.368664 165.918533,51.999153 
	C167.296143,53.101097 169.271225,53.925167 169.937592,55.357903 
	C171.818970,59.403061 173.163376,63.697968 174.719360,67.894463 
	C175.313232,67.879692 175.907089,67.864922 176.500946,67.850159 
	C177.737671,65.438141 179.274261,63.127224 180.130753,60.586994 
	C181.075394,57.785339 182.427887,56.813347 185.509277,56.840931 
	C189.591888,56.877480 189.509277,58.878803 188.610504,61.614746 
	C186.722549,67.361847 184.807358,73.103386 182.716202,78.778244 
	C182.108353,80.427773 181.038895,82.002953 179.842377,83.299736 
	C179.236847,83.955994 177.750137,84.329384 176.893936,84.068611 
	C176.106079,83.828644 175.335098,82.653099 175.070160,81.740616 
	C174.259628,78.949074 173.712769,76.081795 173.032852,73.251305 
	C171.970993,68.830910 171.544739,68.421829 166.686157,66.960358 
	C164.970184,71.028107 163.256943,75.099388 161.401611,79.508331 
	C158.461044,77.707756 155.366562,76.521156 158.419510,72.479958 
	C158.956238,71.769485 158.842850,70.567879 159.080536,69.196167 
z"/>
<path fill="#0D0D0D" opacity="1.000000" stroke="none" 
	d="
M87.007759,59.962547 
	C84.367828,60.897968 81.811882,61.844872 79.237549,61.897839 
	C75.975784,61.964943 72.703514,61.254398 69.427895,60.969967 
	C62.668324,60.383022 59.601543,55.571884 61.664394,49.027248 
	C62.698662,45.745926 63.563175,42.377426 64.111557,38.984848 
	C64.856918,34.373623 67.678963,31.014212 72.058914,31.439556 
	C76.932396,31.912823 82.076775,32.616512 86.389061,34.698853 
	C88.914284,35.918243 91.686081,40.159878 91.466408,42.802517 
	C90.994774,48.476261 88.657211,53.994888 87.007759,59.962547 
M84.286652,39.259487 
	C83.835701,39.049454 83.349251,38.893044 82.939072,38.621429 
	C75.346169,33.593636 71.642616,34.990726 69.756393,43.595036 
	C69.477478,44.867359 69.035431,46.109550 68.830635,47.391525 
	C67.857330,53.484135 71.815903,57.770554 77.952637,57.326591 
	C84.760925,56.834038 88.702652,46.837322 84.286652,39.259487 
z"/>
<path fill="#121212" opacity="1.000000" stroke="none" 
	d="
M150.271942,65.754303 
	C146.266739,65.107918 142.619858,64.078682 138.902313,63.609028 
	C137.717590,63.459354 136.345093,64.795967 135.058517,65.452492 
	C136.009033,66.410187 136.802704,67.898125 137.937225,68.233742 
	C142.830872,69.681320 147.824402,70.791191 152.781586,72.024002 
	C152.818787,72.465996 152.855988,72.907997 152.893188,73.349991 
	C151.381729,73.622849 149.809387,74.308205 148.369522,74.095734 
	C142.736969,73.264618 137.131500,72.224243 131.545395,71.113503 
	C127.983253,70.405205 127.265747,68.875519 129.588013,65.571434 
	C131.234421,63.228935 133.861496,59.733097 128.281662,58.297947 
	C128.420471,58.044022 134.148941,47.565407 134.148941,47.565407 
	C135.596680,44.251377 138.044693,44.860470 140.696747,45.790390 
	C145.788834,47.575897 150.918777,49.253464 156.015457,50.969891 
	C155.274567,52.846649 155.282867,52.744560 148.948181,52.229458 
	C145.846680,51.977257 142.707718,52.185772 139.488464,52.185772 
	C138.977173,53.520157 138.461990,54.864666 137.681503,56.901577 
	C140.848969,58.018047 144.121628,58.914864 147.151978,60.330421 
	C149.156036,61.266567 153.126831,61.466064 150.271942,65.754303 
z"/>
<path fill="#0D0D0D" opacity="1.000000" stroke="none" 
	d="
M203.332703,77.627327 
	C198.115479,75.783493 200.628128,71.850845 201.716171,69.927773 
	C202.488785,68.562233 206.418716,68.080338 208.583237,68.623505 
	C211.585617,69.376907 213.795319,75.596596 211.945343,77.219749 
	C209.593552,79.283211 206.650299,81.066238 203.332703,77.627327 
z"/>
<path fill="#080808" opacity="1.000000" stroke="none" 
	d="
M102.574890,72.240082 
	C103.332085,77.319633 98.734291,77.252861 96.284859,77.568718 
	C92.521545,78.054008 88.522568,76.711731 83.336571,75.957855 
	C85.455101,74.012947 87.150352,72.456635 88.920792,70.572151 
	C93.379776,70.864944 97.763588,71.485901 102.574890,72.240082 
z"/>
<path fill="#151515" opacity="1.000000" stroke="none" 
	d="
M74.512833,24.361759 
	C75.129372,27.760458 73.600174,29.024620 70.769783,28.565384 
	C68.436554,28.186810 66.106873,27.312794 66.821213,24.196833 
	C67.034134,23.268053 68.306107,21.753304 68.789970,21.861500 
	C70.697678,22.288065 72.484901,23.253517 74.512833,24.361759 
z"/>
<path fill="#151515" opacity="1.000000" stroke="none" 
	d="
M93.900566,30.895447 
	C93.141838,31.753481 92.364395,32.768600 91.871269,32.645435 
	C90.159218,32.217823 88.355019,31.644529 86.989082,30.599573 
	C86.444023,30.182594 86.949654,28.392176 86.976990,27.226974 
	C88.777756,27.356220 90.667160,27.206676 92.339912,27.738537 
	C93.114914,27.984957 93.467896,29.558672 93.900566,30.895447 
z"/>
<path fill="#080808" opacity="1.000000" stroke="none" 
	d="
M139.689682,79.813934 
	C138.750443,80.560074 137.528168,81.408081 136.246841,81.509438 
	C134.348343,81.659615 132.407928,81.280304 129.381149,81.038025 
	C129.232040,80.664078 128.664062,79.239655 128.048309,77.458954 
	C131.793762,77.929054 135.587006,78.755432 139.689682,79.813934 
z"/>
<path fill="#1E1E1E" opacity="1.000000" stroke="none" 
	d="
M198.999084,2.000694 
	C199.109879,2.135107 199.221588,2.268825 199.333313,2.402543 
	C199.255127,2.354537 199.176941,2.306530 199.050110,2.128294 
	C199.001450,1.998066 199.000000,1.999999 198.999084,2.000694 
z"/>
<path fill="#080808" opacity="1.000000" stroke="none" 
	d="
M115.462654,100.910156 
	C116.566177,93.943970 121.540604,97.566124 125.511047,97.836411 
	C125.952415,94.642075 126.350670,91.759727 126.748833,88.878090 
	C124.823082,88.612053 123.079788,88.371223 121.336494,88.130394 
	C121.348274,87.522301 121.360054,86.914207 121.371834,86.306107 
	C128.762665,85.122391 136.324341,85.589478 143.706635,86.381172 
	C146.143967,86.642548 148.247574,90.015938 150.503769,91.966408 
	C150.147171,92.718559 149.790573,93.470711 149.433960,94.222862 
	C145.260941,93.235321 141.087906,92.247772 138.426590,91.617973 
	C136.316559,94.018730 134.726486,95.716881 133.279190,97.529076 
	C132.697464,98.257462 132.429138,99.236137 132.008942,100.468742 
	C126.641441,100.886116 121.283195,100.935646 115.462654,100.910156 
z"/>
<path fill="#080808" opacity="1.000000" stroke="none" 
	d="
M85.457306,100.910675 
	C84.393333,97.813766 83.538185,95.179451 79.923775,94.222534 
	C79.040955,93.988808 78.130089,91.494133 78.366898,90.256050 
	C78.517052,89.471039 80.942680,88.373451 82.040756,88.647301 
	C86.740669,89.819397 89.991844,89.084938 90.443878,83.152283 
	C90.844444,83.321877 91.245018,83.491470 91.645584,83.661064 
	C91.645584,86.799713 91.645584,89.938362 91.645584,94.410492 
	C93.623238,95.218254 99.128677,91.980965 100.941689,97.889526 
	C96.754768,103.086113 91.008141,100.253365 85.457306,100.910675 
z"/>
<path fill="#080808" opacity="1.000000" stroke="none" 
	d="
M108.475578,91.972748 
	C105.598503,92.599091 103.008560,93.130524 100.418617,93.661957 
	C100.300354,93.284378 100.182091,92.906792 100.063828,92.529205 
	C103.014900,90.188759 105.965981,87.848312 109.250336,85.243546 
	C109.758575,86.672409 110.227875,87.991768 110.839180,89.630707 
	C110.241699,90.592789 109.502213,91.235313 108.475578,91.972748 
z"/>
<path fill="#080808" opacity="1.000000" stroke="none" 
	d="
M138.455719,100.910446 
	C139.583893,97.111168 146.163010,96.692719 149.931290,100.458008 
	C146.303467,100.885254 142.607300,100.935379 138.455719,100.910446 
z"/>
<path fill="#080808" opacity="1.000000" stroke="none" 
	d="
M76.412437,100.910278 
	C75.979332,98.413406 75.962875,95.739799 79.398811,96.268448 
	C80.144707,96.383209 80.537567,98.792557 81.046410,100.490189 
	C79.608047,100.885284 78.216309,100.935242 76.412437,100.910278 
z"/>
<path fill="#080808" opacity="1.000000" stroke="none" 
	d="
M84.223846,83.337448 
	C82.443481,83.234650 80.996780,82.954247 79.550079,82.673843 
	C79.965775,81.725082 80.153610,80.244072 80.848183,79.946732 
	C82.021133,79.444588 83.514954,79.691948 84.873848,79.624146 
	C84.768402,80.802711 84.662956,81.981285 84.223846,83.337448 
z"/>
<path fill="#080808" opacity="1.000000" stroke="none" 
	d="
M115.237061,78.220772 
	C116.758034,78.016441 118.209846,78.139938 119.661652,78.263428 
	C119.499596,78.970016 119.337547,79.676605 119.175491,80.383194 
	C117.839630,79.771660 116.503761,79.160126 115.237061,78.220772 
z"/>
<path fill="#080808" opacity="1.000000" stroke="none" 
	d="
M120.177536,92.568573 
	C119.018906,92.413795 118.128105,92.044441 117.237305,91.675079 
	C117.549713,91.201904 117.862129,90.728737 118.174545,90.255569 
	C118.931488,90.955048 119.688431,91.654518 120.177536,92.568573 
z"/>
<path fill="#080808" opacity="1.000000" stroke="none" 
	d="
M113.279297,97.510368 
	C112.549683,97.515930 112.031761,97.316025 111.513840,97.116119 
	C111.644180,96.849556 111.774521,96.582985 111.904869,96.316422 
	C112.433578,96.645912 112.962280,96.975410 113.279297,97.510368 
z"/>
<path fill="#F1F1F1" opacity="1.000000" stroke="none" 
	d="
M35.280239,28.106655 
	C35.408012,26.897896 35.451645,26.088779 35.455238,26.022127 
	C38.436081,25.873428 41.730110,24.759396 43.893459,25.862597 
	C46.153271,27.014988 49.006454,30.603355 48.648521,32.596848 
	C47.676960,38.007969 47.955364,44.611198 42.236031,47.834934 
	C39.680340,49.275463 36.194862,49.066422 33.131351,49.606007 
	C33.274029,46.834023 33.300175,44.049942 33.586346,41.292854 
	C34.029747,37.020996 34.650524,32.767551 35.280239,28.106655 
z"/>
<path fill="#F0F0F0" opacity="1.000000" stroke="none" 
	d="
M105.054520,60.418571 
	C106.767052,54.043980 108.383469,48.090103 109.990608,42.170387 
	C118.035751,43.781631 121.218475,46.503754 120.994812,51.292194 
	C120.680107,58.029758 116.750122,62.872143 110.442970,63.520359 
	C108.535759,63.716373 105.032516,65.217903 105.054520,60.418571 
z"/>
<path fill="#F1F1F1" opacity="1.000000" stroke="none" 
	d="
M84.585938,39.502071 
	C88.702652,46.837322 84.760925,56.834038 77.952637,57.326591 
	C71.815903,57.770554 67.857330,53.484135 68.830635,47.391525 
	C69.035431,46.109550 69.477478,44.867359 69.756393,43.595036 
	C71.642616,34.990726 75.346169,33.593636 82.939072,38.621429 
	C83.349251,38.893044 83.835701,39.049454 84.585938,39.502071 
z"/>
</svg>