<svg width="226" height="101" viewBox="0 0 226 101" fill="none" xmlns="http://www.w3.org/2000/svg">
<g clip-path="url(#clip0_101_2)">
<path d="M227 72.5833C225.995 71.3416 224.99 69.6832 224.697 68.1264C225.94 68.152 226.47 68.076 227 68C227 69.3889 227 70.7778 227 72.5833Z" fill="#454545"/>
<path d="M227 67.6666C226.47 68.076 225.94 68.152 225.027 68.0994C225.186 67.3365 225.727 66.7022 226.634 66.034C227 66.4444 227 66.8889 227 67.6666Z" fill="#8C8C8C"/>
<path d="M6 1C6.44433 1 6.88867 1 7.29909 1.30146C8.02186 2.1275 8.71234 2.93231 9.54642 3.1294C13.7177 4.11502 17.9245 4.95136 22.1228 5.82134C28.9955 7.24553 35.9134 8.48025 42.7318 10.1279C47.9133 11.38 52.9646 13.1673 58.0842 14.6815C60.9135 15.5183 63.7672 16.2721 66.6044 17.0824C75.9169 19.7419 85.2306 22.3974 94.5364 25.0805C99.0709 26.3878 103.526 28.0464 108.126 29.036C121.304 31.8708 134.58 34.2588 147.728 37.2231C152.277 38.2488 156.597 40.5791 160.838 42.3518C168.952 45.7436 178.575 45.3532 187.437 47.1832C194.74 48.6914 201.844 51.1564 209.047 53.1587C210.81 53.6489 212.616 53.9878 214.782 54.483C215.344 56.9053 216.371 59.8869 216.677 62.9407C217.288 69.045 218.604 75.3794 217.585 81.2648C216.482 87.6355 220.507 95.6626 212.64 100.301C212.813 100.585 212.987 100.87 212.953 101.157C212.336 101.125 211.924 101.09 211.897 100.705C211.723 99.6359 211.309 98.5295 210.584 98.2621C204.606 96.0549 198.679 93.577 192.528 91.994C180.091 88.7936 167.529 86.0763 155.006 83.2184C150.022 82.081 145.002 81.0989 139.69 79.8139C135.587 78.7554 131.794 77.9291 127.719 76.802C119.292 75.1254 111.147 73.7493 102.575 72.2401C97.7636 71.4859 93.3798 70.8649 88.8147 69.88C82.7554 68.3884 76.8773 67.261 70.6059 66.0153C63.0764 64.1676 55.9444 62.4204 48.8026 60.7139C42.332 59.1677 35.6916 58.1368 29.418 56.0152C22.8527 53.7948 16.6252 50.5683 10.2694 47.7381C5.42714 45.5819 1.29616 43.0095 4.04766 36.5569C4.34246 35.8656 4.03358 34.9267 4.04566 34.1032C4.10946 29.7531 6.84843 27.9089 11.0351 29.0968C13.9065 29.9115 16.8936 30.3187 19.829 30.9081C20.2968 30.1831 20.7645 29.4581 21.2322 28.7331C18.7167 25.2992 16.2013 21.8652 13.6858 18.4312C13.1787 18.5647 12.6716 18.6981 12.1645 18.8316C11.5503 21.4089 10.9361 23.9862 10.2853 26.7171C7.19418 26.5607 5.84465 25.3719 6.15235 21.7374C6.45086 18.2117 5.63762 14.5919 5.44732 10.6865C5.72135 7.23982 5.86067 4.11991 6 1ZM46.083 52.7613C46.7703 52.3162 47.9212 51.9922 48.074 51.4073C49.7692 44.9215 51.3989 38.4145 52.8022 31.8609C53.0301 30.7969 52.2401 29.3829 51.6293 28.294C48.7799 23.2143 44.5332 20.3703 38.5785 19.983C35.0378 19.7527 31.3118 16.0557 29.2088 19.2994C28.7357 25.0366 28.5121 29.1945 28.0216 33.3207C27.4428 38.1896 26.3787 43.0143 26.0556 47.8933C25.9358 49.7037 26.8025 52.2005 28.1204 53.3603C31.2105 56.0796 41.8405 55.5339 46.083 52.7613ZM126.268 56.2635C126.309 54.631 126.312 52.9965 126.397 51.3663C126.617 47.1722 125.623 43.145 121.895 41.1142C118.4 39.2104 114.13 38.7847 110.466 37.1227C106.523 35.3335 104.392 36.8629 103.28 40.3079C101.367 46.2374 99.6479 52.2389 98.1085 58.2768C96.6409 64.0333 97.8195 65.7099 103.578 67.0903C104.21 67.2417 104.809 67.5342 105.417 67.7798C113.594 71.0858 119.689 69.2599 124.116 61.9987C125.019 60.5179 125.399 58.7183 126.268 56.2635ZM159.03 69.5931C158.843 70.5679 158.956 71.7695 158.42 72.48C155.367 76.5212 158.461 77.7078 161.402 79.5083C163.257 75.0994 164.97 71.0281 166.689 66.9639C171.545 68.4218 171.971 68.8309 173.033 73.2513C173.713 76.0818 174.26 78.9491 175.07 81.7406C175.335 82.6531 176.106 83.8286 176.894 84.0686C177.75 84.3294 179.237 83.956 179.842 83.2997C181.039 82.003 182.108 80.4278 182.716 78.7782C184.807 73.1034 186.723 67.3618 188.611 61.6147C189.509 58.8788 189.592 56.8775 185.509 56.8409C182.428 56.8133 181.075 57.7853 180.131 60.587C179.274 63.1272 177.738 65.4381 176.501 67.8502C175.907 67.8649 175.313 67.8797 174.719 67.8945C173.163 63.698 171.819 59.4031 169.938 55.3579C169.271 53.9252 167.296 53.1011 165.919 51.9992C164.915 53.3687 163.525 54.6013 162.981 56.134C161.506 60.2877 160.39 64.5687 159.03 69.5931ZM87.0836 59.577C88.6572 53.9949 90.9948 48.4763 91.4664 42.8025C91.6861 40.1599 88.9143 35.9182 86.3891 34.6989C82.0768 32.6165 76.9324 31.9128 72.0589 31.4396C67.679 31.0142 64.8569 34.3736 64.1116 38.9848C63.5632 42.3774 62.6987 45.7459 61.6644 49.0272C59.6015 55.5719 62.6683 60.383 69.4279 60.97C72.7035 61.2544 75.9758 61.9649 79.2375 61.8978C81.8119 61.8449 84.3678 60.898 87.0836 59.577ZM150.603 65.5882C153.127 61.4661 149.156 61.2666 147.152 60.3304C144.122 58.9149 140.849 58.018 137.682 56.9016C138.462 54.8647 138.977 53.5202 139.488 52.1858C142.708 52.1858 145.847 51.9773 148.948 52.2295C155.283 52.7446 155.275 52.8466 156.015 50.9699C150.919 49.2535 145.789 47.5759 140.697 45.7904C138.045 44.8605 135.597 44.2514 134.149 47.5654C134.149 47.5654 128.42 58.044 128.282 58.2979C133.861 59.7331 131.234 63.2289 129.588 65.5714C127.266 68.8755 127.983 70.4052 131.545 71.1135C137.132 72.2242 142.737 73.2646 148.37 74.0957C149.809 74.3082 151.382 73.6228 152.893 73.35C152.856 72.908 152.819 72.466 152.782 72.024C147.824 70.7912 142.831 69.6813 137.937 68.2337C136.803 67.8981 136.009 66.4102 135.059 65.4525C136.345 64.796 137.718 63.4594 138.902 63.609C142.62 64.0787 146.267 65.1079 150.603 65.5882ZM203.639 77.8457C206.65 81.0662 209.594 79.2832 211.945 77.2197C213.795 75.5966 211.586 69.3769 208.583 68.6235C206.419 68.0803 202.489 68.5622 201.716 69.9278C200.628 71.8508 198.115 75.7835 203.639 77.8457ZM74.3168 24.019C72.4849 23.2535 70.6977 22.2881 68.79 21.8615C68.3061 21.7533 67.0341 23.2681 66.8212 24.1968C66.1069 27.3128 68.4366 28.1868 70.7698 28.5654C73.6002 29.0246 75.1294 27.7605 74.3168 24.019ZM94.0122 30.5307C93.4679 29.5587 93.1149 27.985 92.3399 27.7385C90.6672 27.2067 88.7778 27.3562 86.977 27.227C86.9496 28.3922 86.444 30.1826 86.9891 30.5996C88.355 31.6445 90.1592 32.2178 91.8713 32.6454C92.3644 32.7686 93.1418 31.7535 94.0122 30.5307Z" fill="#F3F3F3"/>
<path d="M213.16 101.154C212.987 100.87 212.813 100.585 212.64 100.301C220.507 95.6626 216.482 87.6355 217.585 81.2648C218.604 75.3794 217.288 69.045 216.677 62.9407C216.371 59.8869 215.344 56.9053 214.782 54.483C212.616 53.9878 210.81 53.6489 209.047 53.1587C201.844 51.1564 194.74 48.6914 187.437 47.1832C178.575 45.3532 168.952 45.7436 160.838 42.3518C156.597 40.5791 152.277 38.2488 147.728 37.2231C134.58 34.2588 121.304 31.8708 108.126 29.036C103.526 28.0464 99.0709 26.3878 94.5364 25.0805C85.2306 22.3974 75.9169 19.7419 66.6044 17.0824C63.7672 16.2721 60.9135 15.5183 58.0842 14.6815C52.9646 13.1673 47.9133 11.38 42.7318 10.1279C35.9134 8.48025 28.9955 7.24552 22.1228 5.82134C17.9246 4.95136 13.7177 4.11502 9.54642 3.12939C8.71234 2.93231 8.02186 2.1275 7.63259 1.30145C22.6876 0.999998 37.3751 0.999998 52.6495 1.35283C55.7187 2.62093 58.1862 3.5794 60.6862 4.4436C69.2385 7.39983 77.734 10.5463 86.3835 13.1869C93.114 15.2416 100.082 16.505 106.871 18.3847C114.585 20.5203 122.171 23.1212 129.896 25.2085C139.363 27.7662 148.92 29.9875 158.432 32.3795C167.696 34.7092 176.948 37.0861 186.212 39.414C194.567 41.5134 202.917 43.6366 211.298 45.6299C216.505 46.8682 221.764 47.8842 227 49C227 54.3549 227 59.7099 226.634 65.5664C225.727 66.7023 225.186 67.3365 224.315 67.9978C224.99 69.6832 225.995 71.3416 227 73C227 82.0209 227 91.0418 226.53 100.533C221.76 101.053 217.46 101.104 213.16 101.154Z" fill="#090909"/>
<path d="M227 48.5459C221.764 47.8842 216.505 46.8682 211.298 45.6299C202.917 43.6366 194.567 41.5134 186.212 39.414C176.948 37.0861 167.696 34.7092 158.432 32.3795C148.92 29.9875 139.363 27.7662 129.896 25.2085C122.171 23.1212 114.585 20.5203 106.871 18.3847C100.082 16.505 93.114 15.2416 86.3835 13.1869C77.734 10.5464 69.2385 7.39983 60.6862 4.4436C58.1862 3.57941 55.7187 2.62093 53.1181 1.35283C60.6876 1 68.3752 1 76.5314 1C77.4634 1.75219 77.7836 3.00361 78.4111 3.1835C93.7977 7.59482 109.228 11.8536 124.622 16.2403C128.041 17.2147 131.289 18.859 134.743 19.6139C136.261 19.9457 138.201 18.2031 139.77 18.468C146.016 19.5227 152.192 20.9972 158.909 22.4259C157.931 23.8306 157.396 24.6002 156.37 26.0746C180.084 30.4257 203.151 34.658 226.609 38.9452C227 42.0306 227 45.0612 227 48.5459Z" fill="#F1F1F1"/>
<path d="M5.44732 10.6865C4.07871 11.9809 2.8448 12.9485 1.30545 13.958C1 9.79046 1 5.58091 1 1C2.31721 1 3.65865 1 5.50004 1C5.86067 4.11991 5.72135 7.23982 5.44732 10.6865Z" fill="#090909"/>
<path d="M199.001 1.99807C198.668 1.91286 198.402 1.72973 198.102 1.22433C198 1 198.5 1 198.75 1C199 1.1669 199 1.3338 199 1.75035C199 2 199.001 1.99807 199.001 1.99807Z" fill="#1E1E1E"/>
<path d="M45.6992 52.8744C41.8405 55.534 31.2105 56.0796 28.1204 53.3603C26.8025 52.2005 25.9358 49.7037 26.0556 47.8933C26.3787 43.0143 27.4428 38.1896 28.0216 33.3207C28.5121 29.1945 28.7357 25.0367 29.2088 19.2994C31.3118 16.0557 35.0378 19.7527 38.5785 19.983C44.5332 20.3703 48.7799 23.2143 51.6293 28.294C52.2401 29.3829 53.0301 30.7969 52.8022 31.8609C51.3989 38.4145 49.7692 44.9216 48.074 51.4073C47.9212 51.9922 46.7703 52.3162 45.6992 52.8744ZM35.1961 28.5063C34.6505 32.7676 34.0297 37.021 33.5863 41.2929C33.3002 44.05 33.274 46.834 33.1314 49.606C36.1949 49.0664 39.6803 49.2755 42.236 47.8349C47.9554 44.6112 47.677 38.008 48.6485 32.5969C49.0065 30.6034 46.1533 27.015 43.8935 25.8626C41.7301 24.7594 38.4361 25.8734 35.4552 26.0221C35.4516 26.0888 35.408 26.8979 35.1961 28.5063Z" fill="#0E0E0E"/>
<path d="M126.144 56.6646C125.399 58.7183 125.019 60.5179 124.116 61.9987C119.689 69.2599 113.594 71.0858 105.417 67.7798C104.809 67.5342 104.21 67.2417 103.578 67.0903C97.8195 65.7099 96.6409 64.0333 98.1085 58.2768C99.648 52.2389 101.367 46.2375 103.28 40.3079C104.392 36.8629 106.523 35.3335 110.466 37.1227C114.13 38.7847 118.4 39.2104 121.895 41.1142C125.623 43.145 126.617 47.1722 126.397 51.3663C126.312 52.9965 126.309 54.631 126.144 56.6646ZM104.958 60.8393C105.033 65.2179 108.536 63.7164 110.443 63.5204C116.75 62.8722 120.68 58.0298 120.995 51.2922C121.218 46.5038 118.036 43.7816 109.991 42.1704C108.383 48.0901 106.767 54.044 104.958 60.8393Z" fill="#0D0D0D"/>
<path d="M159.081 69.1962C160.39 64.5687 161.506 60.2877 162.981 56.134C163.525 54.6013 164.915 53.3687 165.919 51.9991C167.296 53.1011 169.271 53.9252 169.938 55.3579C171.819 59.4031 173.163 63.698 174.719 67.8945C175.313 67.8797 175.907 67.8649 176.501 67.8502C177.738 65.4381 179.274 63.1272 180.131 60.587C181.075 57.7853 182.428 56.8133 185.509 56.8409C189.592 56.8775 189.509 58.8788 188.611 61.6147C186.723 67.3618 184.807 73.1034 182.716 78.7782C182.108 80.4278 181.039 82.0029 179.842 83.2997C179.237 83.956 177.75 84.3294 176.894 84.0686C176.106 83.8286 175.335 82.6531 175.07 81.7406C174.26 78.9491 173.713 76.0818 173.033 73.2513C171.971 68.8309 171.545 68.4218 166.686 66.9604C164.97 71.0281 163.257 75.0994 161.402 79.5083C158.461 77.7077 155.367 76.5211 158.42 72.4799C158.956 71.7695 158.843 70.5679 159.081 69.1962Z" fill="#0B0B0B"/>
<path d="M87.0078 59.9625C84.3678 60.898 81.8119 61.8449 79.2375 61.8978C75.9758 61.9649 72.7035 61.2544 69.4279 60.97C62.6683 60.383 59.6015 55.5719 61.6644 49.0272C62.6987 45.7459 63.5632 42.3774 64.1116 38.9848C64.8569 34.3736 67.679 31.0142 72.0589 31.4395C76.9324 31.9128 82.0768 32.6165 86.3891 34.6988C88.9143 35.9182 91.6861 40.1599 91.4664 42.8025C90.9948 48.4762 88.6572 53.9949 87.0078 59.9625ZM84.2867 39.2595C83.8357 39.0494 83.3493 38.893 82.9391 38.6214C75.3462 33.5936 71.6426 34.9907 69.7564 43.595C69.4775 44.8673 69.0354 46.1095 68.8306 47.3915C67.8573 53.4841 71.8159 57.7705 77.9526 57.3266C84.7609 56.834 88.7027 46.8373 84.2867 39.2595Z" fill="#0D0D0D"/>
<path d="M150.272 65.7543C146.267 65.1079 142.62 64.0787 138.902 63.609C137.718 63.4594 136.345 64.796 135.059 65.4525C136.009 66.4102 136.803 67.8981 137.937 68.2338C142.831 69.6813 147.824 70.7912 152.782 72.024C152.819 72.466 152.856 72.908 152.893 73.35C151.382 73.6229 149.809 74.3082 148.37 74.0957C142.737 73.2646 137.131 72.2243 131.545 71.1135C127.983 70.4052 127.266 68.8755 129.588 65.5714C131.234 63.2289 133.861 59.7331 128.282 58.298C128.42 58.044 134.149 47.5654 134.149 47.5654C135.597 44.2514 138.045 44.8605 140.697 45.7904C145.789 47.5759 150.919 49.2535 156.015 50.9699C155.275 52.8467 155.283 52.7446 148.948 52.2295C145.847 51.9773 142.708 52.1858 139.488 52.1858C138.977 53.5202 138.462 54.8647 137.681 56.9016C140.849 58.0181 144.122 58.9149 147.152 60.3304C149.156 61.2666 153.127 61.4661 150.272 65.7543Z" fill="#121212"/>
<path d="M203.333 77.6273C198.115 75.7835 200.628 71.8508 201.716 69.9278C202.489 68.5622 206.419 68.0803 208.583 68.6235C211.586 69.3769 213.795 75.5966 211.945 77.2198C209.594 79.2832 206.65 81.0662 203.333 77.6273Z" fill="#0D0D0D"/>
<path d="M74.5128 24.3618C75.1294 27.7605 73.6002 29.0246 70.7698 28.5654C68.4366 28.1868 66.1069 27.3128 66.8212 24.1968C67.0341 23.2681 68.3061 21.7533 68.79 21.8615C70.6977 22.2881 72.4849 23.2535 74.5128 24.3618Z" fill="#151515"/>
<path d="M93.9006 30.8955C93.1418 31.7535 92.3644 32.7686 91.8713 32.6455C90.1592 32.2178 88.355 31.6445 86.9891 30.5996C86.444 30.1826 86.9497 28.3922 86.977 27.227C88.7778 27.3562 90.6672 27.2067 92.3399 27.7386C93.1149 27.985 93.4679 29.5587 93.9006 30.8955Z" fill="#151515"/>
<path d="M198.999 2.00069C199.11 2.1351 199.222 2.26882 199.333 2.40254C199.255 2.35453 199.177 2.30652 199.05 2.12829C199.001 1.99806 198.999 2.00069 198.999 2.00069Z" fill="#1E1E1E"/>
<path d="M113.279 97.5104C112.55 97.5159 112.032 97.316 111.514 97.1161C111.644 96.8495 111.775 96.583 111.905 96.3164C112.434 96.6459 112.962 96.9754 113.279 97.5104Z" fill="#080808"/>
<path d="M35.2802 28.1067C35.408 26.8979 35.4516 26.0888 35.4552 26.0221C38.4361 25.8734 41.7301 24.7594 43.8935 25.8626C46.1533 27.015 49.0065 30.6034 48.6485 32.5968C47.677 38.008 47.9554 44.6112 42.236 47.8349C39.6803 49.2755 36.1949 49.0664 33.1314 49.606C33.274 46.834 33.3002 44.0499 33.5863 41.2929C34.0297 37.021 34.6505 32.7676 35.2802 28.1067Z" fill="#F1F1F1"/>
<path d="M105.055 60.4186C106.767 54.044 108.383 48.0901 109.991 42.1704C118.036 43.7816 121.218 46.5037 120.995 51.2922C120.68 58.0298 116.75 62.8721 110.443 63.5204C108.536 63.7164 105.033 65.2179 105.055 60.4186Z" fill="#F0F0F0"/>
<path d="M84.5859 39.5021C88.7027 46.8373 84.7609 56.834 77.9526 57.3266C71.8159 57.7706 67.8573 53.4841 68.8306 47.3915C69.0354 46.1096 69.4775 44.8674 69.7564 43.595C71.6426 34.9907 75.3462 33.5936 82.9391 38.6214C83.3493 38.893 83.8357 39.0495 84.5859 39.5021Z" fill="#F1F1F1"/>
<path d="M14.8403 4C15.0134 4.28446 15.1865 4.5689 15.3596 4.85336C7.49252 9.49154 11.5179 17.5186 10.4147 23.8893C9.39561 29.7747 10.7124 36.1091 11.3235 42.2135C11.6292 45.2672 12.6556 48.2488 13.2185 50.6712C15.3843 51.1664 17.1898 51.5052 18.9533 51.9954C26.1563 53.9977 33.2604 56.4628 40.5633 57.9709C49.4253 59.801 59.0477 59.4105 67.1617 62.8023C71.4025 64.5751 75.7233 66.9053 80.2723 67.931C93.4196 70.8953 106.696 73.2834 119.874 76.1181C124.474 77.1077 128.929 78.7663 133.464 80.0737C142.769 82.7567 152.083 85.4122 161.396 88.0717C164.233 88.882 167.087 89.6359 169.916 90.4727C175.035 91.9869 180.087 93.7742 185.268 95.0263C192.087 96.6739 199.005 97.9086 205.877 99.3328C210.075 100.203 214.282 101.039 218.454 102.025C219.288 102.222 219.978 103.027 220.367 103.853C205.312 104.154 190.625 104.154 175.351 103.801C172.281 102.533 169.814 101.575 167.314 100.711C158.761 97.7543 150.266 94.6078 141.617 91.9673C134.886 89.9125 127.918 88.6491 121.129 86.7695C113.415 84.6339 105.829 82.0329 98.1037 79.9457C88.637 77.3879 79.0796 75.1667 69.5678 72.7746C60.304 70.445 51.0521 68.0681 41.7879 65.7402C33.4327 63.6407 25.0827 61.5176 16.7021 59.5243C11.4954 58.2859 6.23583 57.27 1 56.1542C1 50.7992 1 45.4443 1.36627 39.5878C2.27319 38.4519 2.81386 37.8177 3.68504 37.1564C3.01036 35.4709 2.00517 33.8125 1 32.1542C1 23.1333 1 14.1124 1.4696 4.62146C6.23958 4.10096 10.5399 4.05048 14.8403 4Z" fill="#090909"/>
</g>
<defs>
<clipPath id="clip0_101_2">
<rect width="226" height="101" fill="white"/>
</clipPath>
</defs>
</svg>
